<svg xmlns="http://www.w3.org/2000/svg" viewBox="-20 -2.00054 500 515.7">
  <path d="m415.73 398.03 17.29 64.54 41.42-11.1c7.72-2.07 15.73 2.55 17.8 10.27l3.76 14.04-134.16 35.95-3.76-14.04c-2.07-7.72 2.55-15.73 10.27-17.8l41.43-11.09-17.3-64.54c-26.14 4.87-49.36 1.74-68.53-8.95-21.99-12.26-37.94-34.01-46.12-64.57L248 229.54l-20.05 68.01c-8.45 36.36-22.1 78.91-55.9 97.76-19.17 10.69-42.39 13.82-68.53 8.95l-17.3 64.54 41.43 11.09c7.72 2.07 12.34 10.08 10.27 17.8l-3.76 14.04L0 475.78l3.76-14.04c2.07-7.72 10.08-12.34 17.8-10.27l41.42 11.1 17.29-64.54c-24.99-8.84-43.6-23.14-54.88-42.04-12.87-21.53-15.87-48.29-7.66-78.94l30.24-101.28 3.83-14.29L248 214.05l196.2-52.57 3.83 14.29 17.5 65.3 11.21 43.08c5.6 26.82 5.15 52.96-6.13 71.84-11.28 18.9-29.89 33.2-54.88 42.04zM267.05 242.98c90.2 74.66 121.66 11.02 183.6-.32l-16.9-63.08-171.88 46.06 5.18 17.34zm-35.13-9.94C143.61 319.68 107.4 253.47 41.7 248.4l20.55-68.82 171.88 46.06-2.21 7.4zm94.56-104.66c-16.24 19.12-29.3 41.23-38.17 64.18l12.52-3.26c9.9-18.2 21.59-34.13 35.55-46.91 14.96-13.7.33-26.02-9.9-14.01zM279.62 37.6a3.328 3.328 0 11-1.89 6.38 3.334 3.334 0 01-2.25-4.14 3.332 3.332 0 014.14-2.24zm63.99-2.91a8.49 8.49 0 015.74 10.55c-1.33 4.5-6.06 7.07-10.55 5.74a8.49 8.49 0 01-5.74-10.55c1.34-4.5 6.05-7.07 10.55-5.74zm.53 59.19c3.31.99 5.21 4.47 4.22 7.79-.97 3.31-4.45 5.21-7.78 4.23-3.31-.98-5.2-4.46-4.23-7.78.99-3.32 4.47-5.22 7.79-4.24zM154.27.21a5.1 5.1 0 013.44 6.35c-.8 2.71-3.64 4.26-6.34 3.46a5.108 5.108 0 01-3.46-6.35c.8-2.71 3.65-4.26 6.36-3.46zm35.74 19.12c5.34 1.58 8.38 7.18 6.81 12.52-1.58 5.34-7.18 8.39-12.52 6.81-5.34-1.58-8.39-7.19-6.81-12.52 1.58-5.34 7.18-8.39 12.52-6.81zm40.73 23.52c5.26-4.09 12.17.4 12.5 10.23l8.32 149.04-4.08 1.06-20.5-144.15c-.87-6.07-2.04-11.68 3.76-16.18zm-65.48 18.54c28.24 27.61 51.68 69.3 61.37 132.75-18.15-60.37-43.72-96.82-70.26-118.32-13.57-10.99-.81-23.91 8.89-14.43zm148.75-2.1c-26.8 31.55-45.77 76.01-47.83 139.03l3.53-.92c10.27-60.63 29.15-101.17 54.19-124.1 14.96-13.7.32-26.03-9.89-14.01zm-172.15 57.95c27.01 20.73 50.08 47.17 66.49 75.82l-14.98-3.88c-17.68-22.31-37.26-40.79-59.29-53.69-20.27-11.84-6.72-29.35 7.78-18.25z" stroke="#ffffff" stroke-width="2" fill="#5046e5" />
  <text x="400" y="1050" h="500" w="550" fill="red">Crunches</text>
</svg>
